<?xml version="1.0" encoding="utf-8"?>
<!-- Generator: Adobe Illustrator 24.0.3, SVG Export Plug-In . SVG Version: 6.00 Build 0)  -->
<svg version="1.1" id="レイヤー_1" xmlns:svg="http://www.w3.org/2000/svg"
	 xmlns="http://www.w3.org/2000/svg" xmlns:xlink="http://www.w3.org/1999/xlink" x="0px" y="0px" viewBox="0 0 2000 2000"
	 style="enable-background:new 0 0 2000 2000;" xml:space="preserve">
<style type="text/css">
	.st0{fill:#FFFFFF;}
	.st1{fill:#888888;stroke:#888888;stroke-width:44;stroke-linejoin:round;stroke-miterlimit:16;}
</style>
<rect class="st0" width="2000" height="2000"/>
<g transform="rotate(0,0,0)">
	<path class="st1" d="M1355.7,648.8c0,196.2-159.3,355.2-355.7,355.2S644.3,845,644.3,648.8S803.5,293.6,1000,293.6l0,0
		C1196.4,293.6,1355.7,452.6,1355.7,648.8L1355.7,648.8z"/>
	<path class="st1" d="M1280.8,1070.4c-83.2,55.4-180.9,85-280.9,85.1c-100-0.1-197.8-29.7-281-85.1
		c-185.1,36.1-324.1,197.8-324.1,393.1v242.9H1605v-242.9C1605,1268.2,1466.1,1106.5,1280.8,1070.4L1280.8,1070.4z"/>
</g>
</svg>
