<svg id="レイヤー_1" data-name="レイヤー 1" xmlns="http://www.w3.org/2000/svg" viewBox="0 0 447.66 124.27"><defs><style>.cls-1{fill:#c3887d;}</style></defs><title>itsme_logo</title><path class="cls-1" d="M32.94,101.15q0,4.65,2.16,4.65a24.82,24.82,0,0,0,9-2.16L47.74,113q-15.3,11.31-29.61,11.31-8.31,0-13.22-4.74T0,106.14Q0,97.49,8.48,67T17.8,24.45A12.92,12.92,0,0,0,16,18.3,34.55,34.55,0,0,0,12.48,13l-1.83-2L11,7.65q10.48-3.49,37.1-3.49a22.36,22.36,0,0,1,2.66,10.65q0,9.64-8.9,42.08T32.94,101.15Z"/><path class="cls-1" d="M114.12,63.38,99.81,62.22Q93.17,92,92.58,96.82a68.49,68.49,0,0,0-.59,7.9c0,2.06.67,3.08,2,3.08q2.33,0,8.82-3l4,8a45.4,45.4,0,0,1-13.47,8.15,41.54,41.54,0,0,1-15.73,3.33q-7.56,0-12.06-3.91T61.05,109.3q0-7.15,4.16-23T70.7,62.88c-2.66.23-6.6.61-11.81,1.17a34.71,34.71,0,0,1-.67-6.57,32.56,32.56,0,0,1,.84-6.91h13.3q.17-2.16.17-14.47l-.33-6.82A98.11,98.11,0,0,1,103,24q1.17,2.66,1.17,9.23A93.33,93.33,0,0,1,102,50.57h15A29.69,29.69,0,0,1,114.12,63.38Z"/><path class="cls-1" d="M156.87,18.47q0,7.49-6.65,19T138.07,54.57l-9-4.83q6.49-10.14,8.15-19.46l-12-8.32a24.59,24.59,0,0,1,3.32-12.23A29.92,29.92,0,0,1,137.24,0Q156.88,3.17,156.87,18.47Z"/><path class="cls-1" d="M203.78,99.81q0,10.32-9.56,17.39a36.66,36.66,0,0,1-22.38,7.07q-12.81,0-21-4.33t-8.24-8.23q0-3.92,5.08-10T158,94.66q7.65,4.16,13.8,18.46,4.83,0,4.83-3.16a7.69,7.69,0,0,0-1.33-4.32c-.89-1.33-1.56-2.39-2-3.16A27.45,27.45,0,0,0,171,99.23c-1.11-1.38-1.94-2.41-2.49-3.08q-4.17-5-7.49-9.15-8-10-8-17.55a16.77,16.77,0,0,1,4.82-12.39q8.31-8.49,24.45-8.48,10.16,0,16.14,3.91t6,11.64q0,7.74-9.15,17.72Q203.79,91.66,203.78,99.81ZM192.64,69.29a10.51,10.51,0,0,0,2-5.58,4.24,4.24,0,0,0-2.16-3.82,9.62,9.62,0,0,0-5.16-1.33A6.65,6.65,0,0,0,182.74,60a4.77,4.77,0,0,0-1.58,3.74q0,2.34,7.15,10.32A17.33,17.33,0,0,0,192.64,69.29Z"/><path class="cls-1" d="M215.43,123.27h-2q0-9.64,9.32-51.07t9.31-45.75q0-7-5.15-13.31L225.24,11l.5-3.33q9.81-3.31,35.94-3.32a36.49,36.49,0,0,1,2.82,14.14Q284,4.16,297.77,4.16q15.81,0,18.8,13.64,18.8-13.63,32.78-13.64,9.48,0,15.47,5.24t6,15.14q0,9.9-7.24,37.59t-7.24,39.35q0,4.32,1.83,4.32a23.68,23.68,0,0,0,8.49-2l3.49,9.48q-15.47,11-30.61,11-7.15,0-11.48-4.33t-4.32-12.72q0-8.4,6.9-36.6t6.9-34.35c0-4.11-.49-6.85-1.49-8.24S333.1,26,330.21,26s-7.43,2.11-13.64,6.32q-1.15,7.66-5.15,24.79-10.49,43.76-10.48,62.05-8.16,4.33-28.12,4.33h-4.49q0-15.31,7.82-47.91T284,36.43c0-4.32-.48-7.15-1.42-8.48s-2.88-2-5.82-2-7.57,2.16-13.89,6.49q-1.5,8.33-6.16,27.62Q245.87,105.14,245.87,119,238.55,123.27,215.43,123.27Z"/><path class="cls-1" d="M375.8,92.16q0-20.62,12.56-32.1t31-11.48q12.81,0,20.55,5.57A17.48,17.48,0,0,1,447.66,69a19.19,19.19,0,0,1-4.16,12.14,27.64,27.64,0,0,1-10.15,8.15q-12.63,5.67-22,6.82l-4.16.5q1.83,11,11,11a26.15,26.15,0,0,0,8.81-1.74,38.85,38.85,0,0,0,7.66-3.58l2.82-1.66,5.33,7.15L441,109.63c-.67.66-2.25,2-4.74,3.91a54.34,54.34,0,0,1-7.82,5.07,51.47,51.47,0,0,1-10.4,3.91,47.1,47.1,0,0,1-12.64,1.75q-14.15,0-21.88-8.24T375.8,92.16Zm40.42-14.39q4.83-7.23,4.82-12.14t-2.82-4.91q-4.17,0-7.66,6.49t-4,18.46Q411.4,85,416.22,77.77Z"/></svg>